<?xml version="1.0" encoding="utf-8"?>
<!-- Generator: Adobe Illustrator 26.4.1, SVG Export Plug-In . SVG Version: 6.00 Build 0)  -->
<svg version="1.1" id="Layer_1" xmlns="http://www.w3.org/2000/svg" xmlns:xlink="http://www.w3.org/1999/xlink" x="0px" y="0px"
	 viewBox="0 0 180 180" style="enable-background:new 0 0 180 180;" xml:space="preserve">
<style type="text/css">
	.st0{fill:#CFBCF5;}
	.st1{fill:#7844E4;}
	.st2{fill:#7844E4;stroke:#FFFFFF;stroke-width:5;stroke-miterlimit:10;}
	.st3{fill:#7844E4;stroke:#FFFFFF;stroke-width:3;stroke-linecap:round;stroke-miterlimit:10;}
	.st4{fill:#BAA0F0;}
	.st5{fill:#7844E2;}
	.st6{fill:#FFFFFF;}
</style>
<path class="st4" d="M168.8,104.4c0.8,0.3,1.7,0.3,2.5,0.6c2.5,0.3,4.2,2.5,3.7,5.1c-2.2,9.8-6.5,19.1-11.8,27.3
	c-1.4,2-3.9,2.5-5.9,0.8c-2.2-2-5.3-3.1-8.7-2.8c-7.3,0-13.2,6.2-13.5,13.2c0,3.1,1.1,6.2,2.8,8.4c1.4,2,0.8,4.5-1.1,5.9
	c-9,5.6-18.8,9.8-29.5,11.8c-1.4,0.3-2.8-0.8-2.8-2.2l0,0c0-7.3-5.9-13.2-13.2-13.5c-7.6-0.3-13.8,5.9-13.8,13.5l0,0
	c0,1.7-1.4,2.8-2.8,2.5c-10.7-2-20.8-5.9-29.5-11.5c-2-1.4-2.5-4.2-0.8-6.2c2-2.5,3.1-5.6,3.1-9c-0.3-7.3-6.2-12.9-13.2-13.2
	c-3.4,0-6.7,1.1-9.3,3.4c-2,1.7-4.8,1.1-6.2-0.8c-5.9-8.7-10.1-18.8-12.4-29.5c-0.8-2.2,1.1-4.5,3.7-4.5h0.3
	c7.3-0.3,12.9-5.9,13.2-12.9c0.3-7.9-5.9-14.3-13.5-14.3l0,0c-2.5,0-4.2-2.2-3.9-4.8c2.2-10.1,6.2-19.4,11.2-27.8
	c1.4-2.2,4.5-2.5,6.5-0.8c2.5,2.5,6.2,4.2,10.1,4.2c7.3-0.3,13.2-6.2,13.2-13.2c0-3.9-1.7-7.6-4.2-10.1c-2-1.7-1.7-5.1,0.6-6.5
	c8.7-5.9,18.8-9.8,29.5-12.1c2.5-0.6,5.1,1.4,4.8,4.2c0,0.3,0,0.6,0,0.8c0.3,7,5.9,12.6,12.9,13.2c7.9,0.3,14-5.9,14-13.5V9.7
	c0-2.5,2.5-4.5,5.1-3.9c10.4,2.2,20,6.5,28.4,12.1c2.2,1.4,2.5,4.2,0.8,6.2c-2.5,2.5-3.9,5.9-3.9,9.6c0,7.3,5.9,13.2,13.2,13.5
	c3.7,0,7-1.4,9.6-3.7c2-1.7,4.8-1.4,6.2,0.8c5.6,9,9.6,19.1,11.5,29.8c0.3,2-1.1,3.9-3.4,3.9l0,0c-9,0-15.7,8.4-12.9,17.7
	C160.9,99.9,164.3,103.2,168.8,104.4z"/>
<circle class="st5" cx="91.2" cy="91.2" r="44.1"/>
<circle class="st6" cx="91.8" cy="90.6" r="24.7"/>
</svg>
