<?xml version="1.0" encoding="UTF-8"?>
<svg id="Layer_1" data-name="Layer 1" xmlns="http://www.w3.org/2000/svg" viewBox="0 0 180 180">
  <defs>
    <style>
      .cls-1 {
        fill: #cfbcf5;
      }

      .cls-2 {
        fill: #c6b3f4;
      }

      .cls-3 {
        fill: #7844e4;
      }
    </style>
  </defs>
  <path class="cls-1" d="M180,29.5v121c0,4.7-3.8,8.5-8.5,8.5H8.5c-4.7,0-8.5-3.8-8.5-8.5V29.5c0-2.4,1-4.6,2.7-6.2,1.5-1.4,3.6-2.3,5.8-2.3H171.5c2.3,0,4.3,.9,5.8,2.4,1.6,1.5,2.6,3.7,2.6,6.1Z"/>
  <path class="cls-2" d="M176.4,156.6L95.5,85.2c-3.7-3.2-9.2-3.2-12.9,0L1.7,156.7c1.5,1.4,3.6,2.3,5.8,2.3H170.6c2.3,0,4.3-.9,5.8-2.4Z"/>
  <path class="cls-3" d="M177.4,23.4L96.5,94.8c-3.7,3.2-9.2,3.2-12.9,0L2.7,23.3c1.5-1.4,3.6-2.3,5.8-2.3H171.5c2.3,0,4.3,.9,5.8,2.4Z"/>
</svg>