<?xml version="1.0" encoding="UTF-8"?>
<svg id="Layer_1" data-name="Layer 1" xmlns="http://www.w3.org/2000/svg" viewBox="0 0 180 180">
  <defs>
    <style>
      .cls-1 {
        fill: #cfbcf5;
      }

      .cls-2 {
        fill: #7844e4;
      }
    </style>
  </defs>
  <path class="cls-1" d="M28.5,15.6h122.9c6.1,0,11,4.9,11,11v124.4c0,.6-.5,1.1-1.1,1.1H18.6c-.6,0-1.1-.5-1.1-1.1V26.6c0-6.1,4.9-11,11-11Z"/>
  <path class="cls-1" d="M90,152.1H17.5v25.7c0,1.6,1.6,2.6,3,2l69.4-27.7Z"/>
  <path class="cls-1" d="M90,152.1h72.5v25.7c0,1.6-1.6,2.6-3,2l-69.4-27.7Z"/>
  <rect class="cls-2" x="44.5" y="1.2" width="8.4" height="31.2" rx="4.2" ry="4.2"/>
  <rect class="cls-2" x="85.8" y="0" width="8.4" height="31.2" rx="4.2" ry="4.2"/>
  <rect class="cls-2" x="127.1" width="8.4" height="31.2" rx="4.2" ry="4.2"/>
  <path class="cls-2" d="M94.9,64.3l5.8,11.8c.8,1.6,2.3,2.7,4.1,3l13.1,1.9c4.4,.6,6.2,6.1,3,9.2l-9.5,9.2c-1.3,1.2-1.9,3-1.6,4.8l2.2,13c.8,4.4-3.9,7.8-7.9,5.7l-11.7-6.1c-1.6-.8-3.5-.8-5,0l-11.7,6.1c-4,2.1-8.6-1.3-7.9-5.7l2.2-13c.3-1.8-.3-3.5-1.6-4.8l-9.5-9.2c-3.2-3.1-1.4-8.6,3-9.2l13.1-1.9c1.8-.3,3.3-1.4,4.1-3l5.8-11.8c2-4,7.7-4,9.7,0Z"/>
</svg>