<svg width="44" height="44" viewBox="0 0 44 44" fill="none" xmlns="http://www.w3.org/2000/svg">
    <path fill-rule="evenodd" clip-rule="evenodd" d="M0.600098 37.4C0.600098 37.1756 0.600098 18.7264 0.600098 8.8C0.600098 3.9402 4.5381 0 9.4001 0H29.2001C30.4145 0 31.4001 0.9856 31.4001 2.2V33C31.4001 34.21 30.4211 35.1912 29.2133 35.2H29.2001H28.1001V39.6H29.2001C30.4123 39.6 31.4001 40.5856 31.4001 41.8C31.4001 43.0144 30.4123 44 29.2001 44H7.2001C3.5547 44 0.600098 41.0454 0.600098 37.4ZM7.2001 35.2C6.0935 35.2 5.0001 36.2934 5.0001 37.4C5.0001 38.6144 5.9835 39.6 7.2001 39.6H23.7001V35.2H7.2001ZM27.0001 30.8V4.4H9.4001C6.9691 4.4 5.0001 6.369 5.0001 8.8V31.1762C5.5699 30.9738 6.4543 30.8132 7.2001 30.8H27.0001ZM22.6001 11C22.6001 9.7856 21.6145 8.8 20.4001 8.8H11.6001C10.3835 8.8 9.4001 9.7856 9.4001 11V17.6C9.4001 18.8144 10.3835 19.8 11.6001 19.8H20.4001C21.6145 19.8 22.6001 18.8144 22.6001 17.6V11ZM13.8001 13.2V15.4H18.2001V13.2H13.8001Z" fill="#97A8CB"/>
</svg>