<svg width="44" height="44" viewBox="0 0 44 44" fill="none" xmlns="http://www.w3.org/2000/svg">
    <path fill-rule="evenodd" clip-rule="evenodd" d="M11.7761 4.4C12.6825 1.837 15.1267 0 17.9999 0C20.8709 0 23.3151 1.837 24.2215 4.4H30.0999C31.5585 4.4 32.9555 4.97861 33.9873 6.01041C35.0191 7.04221 35.5999 8.4414 35.5999 9.9V38.5C35.5999 41.5382 33.1359 44 30.0999 44C24.1775 44 11.8201 44 5.8999 44C2.8617 44 0.399902 41.5382 0.399902 38.5C0.399902 31.7878 0.399902 16.6122 0.399902 9.9C0.399902 8.4414 0.978499 7.04221 2.0103 6.01041C3.0421 4.97861 4.4413 4.4 5.8999 4.4H11.7761ZM13.5999 8.8C14.8143 8.8 15.7999 7.8144 15.7999 6.6C15.7999 5.3856 16.7855 4.4 17.9999 4.4C19.2121 4.4 20.1999 5.3856 20.1999 6.6C20.1999 7.8144 21.1833 8.8 22.3999 8.8H30.0999C30.3903 8.8 30.6697 8.91441 30.8765 9.12121C31.0833 9.32801 31.1999 9.6074 31.1999 9.9V38.5C31.1999 39.1072 30.7071 39.6 30.0999 39.6C24.1775 39.6 11.8201 39.6 5.8999 39.6C5.2905 39.6 4.7999 39.1072 4.7999 38.5C4.7999 31.7878 4.7999 16.6122 4.7999 9.9C4.7999 9.6074 4.9143 9.32801 5.1211 9.12121C5.3279 8.91441 5.6073 8.8 5.8999 8.8H13.5999ZM20.1999 35.2H24.5999C25.8121 35.2 26.7999 34.2144 26.7999 33C26.7999 31.7856 25.8121 30.8 24.5999 30.8H20.1999C18.9855 30.8 17.9999 31.7856 17.9999 33C17.9999 34.2144 18.9855 35.2 20.1999 35.2ZM11.3999 26.4H24.5999C25.8121 26.4 26.7999 25.4144 26.7999 24.2C26.7999 22.9856 25.8121 22 24.5999 22H11.3999C10.1855 22 9.1999 22.9856 9.1999 24.2C9.1999 25.4144 10.1855 26.4 11.3999 26.4ZM11.3999 17.6H24.5999C25.8121 17.6 26.7999 16.6144 26.7999 15.4C26.7999 14.1856 25.8121 13.2 24.5999 13.2H11.3999C10.1855 13.2 9.1999 14.1856 9.1999 15.4C9.1999 16.6144 10.1855 17.6 11.3999 17.6Z" fill="#97A8CB"></path>
</svg>